name rise30.9205peak61.366fall85.3838.mot
datacolumns 19
datarows 24
range 14.08994400000000 14.12827800000000
endheader
time	ground_force1_vx	ground_force1_vy	ground_force1_vz	ground_force1_px	ground_force1_py	ground_force1_pz	ground_force2_vx	ground_force2_vy	ground_force2_vz	ground_force2_px	ground_force2_py	ground_force2_pz	ground_torque1_x	ground_torque1_y	ground_torque1_z	ground_torque2_x	ground_torque2_y	ground_torque2_z	
14.08994400000000	2.47627500000000	683.85150699999997	31.98607600000000	0.23575100000000	0.00000000000000	0.09949500000000	0.00000000000000	0.00000000000000	0.00000000000000	0.00000000000000	0.00000000000000	0.00000000000000	0.00000000000000	13.54210000000000	0.00000000000000	0.00000000000000	0.00000000000000	0.00000000000000	
14.09161100000000	2.01890700000000	684.27777100000003	32.01902700000000	0.23508800000000	0.00000000000000	0.09948400000000	0.00000000000000	0.00000000000000	0.00000000000000	0.00000000000000	0.00000000000000	0.00000000000000	0.00000000000000	13.64596700000000	0.00000000000000	0.00000000000000	0.00000000000000	0.00000000000000	
14.09328000000000	1.55037900000000	684.75353800000005	32.05669900000000	0.23439700000000	0.00000000000000	0.09947600000000	0.00000000000000	0.00000000000000	0.00000000000000	0.00000000000000	0.00000000000000	0.00000000000000	0.00000000000000	13.75359400000000	0.00000000000000	0.00000000000000	0.00000000000000	0.00000000000000	
14.09494900000000	1.07038200000000	685.27921200000003	32.09913000000000	0.23367800000000	0.00000000000000	0.09946900000000	0.00000000000000	0.00000000000000	0.00000000000000	0.00000000000000	0.00000000000000	0.00000000000000	0.00000000000000	13.86496400000000	0.00000000000000	0.00000000000000	0.00000000000000	0.00000000000000	
14.09661700000000	0.57865300000000	685.85521000000006	32.14635400000000	0.23293100000000	0.00000000000000	0.09946500000000	0.00000000000000	0.00000000000000	0.00000000000000	0.00000000000000	0.00000000000000	0.00000000000000	0.00000000000000	13.98005700000000	0.00000000000000	0.00000000000000	0.00000000000000	0.00000000000000	
14.09828300000000	0.07497100000000	686.48195899999996	32.19840700000000	0.23215400000000	0.00000000000000	0.09946300000000	0.00000000000000	0.00000000000000	0.00000000000000	0.00000000000000	0.00000000000000	0.00000000000000	0.00000000000000	14.09885100000000	0.00000000000000	0.00000000000000	0.00000000000000	0.00000000000000	
14.09995100000000	-0.44084100000000	687.15989900000000	32.25531500000000	0.23134800000000	0.00000000000000	0.09946300000000	0.00000000000000	0.00000000000000	0.00000000000000	0.00000000000000	0.00000000000000	0.00000000000000	0.00000000000000	14.22132000000000	0.00000000000000	0.00000000000000	0.00000000000000	0.00000000000000	
14.10162600000000	-0.96891400000000	687.88947399999995	32.31710500000000	0.23051100000000	0.00000000000000	0.09946500000000	0.00000000000000	0.00000000000000	0.00000000000000	0.00000000000000	0.00000000000000	0.00000000000000	0.00000000000000	14.34743500000000	0.00000000000000	0.00000000000000	0.00000000000000	0.00000000000000	
14.10328300000000	-1.50933500000000	688.67113600000005	32.38379600000000	0.22964500000000	0.00000000000000	0.09947000000000	0.00000000000000	0.00000000000000	0.00000000000000	0.00000000000000	0.00000000000000	0.00000000000000	0.00000000000000	14.47716300000000	0.00000000000000	0.00000000000000	0.00000000000000	0.00000000000000	
14.10494400000000	-2.06214600000000	689.50533600000006	32.45540100000000	0.22875000000000	0.00000000000000	0.09947600000000	0.00000000000000	0.00000000000000	0.00000000000000	0.00000000000000	0.00000000000000	0.00000000000000	0.00000000000000	14.61046800000000	0.00000000000000	0.00000000000000	0.00000000000000	0.00000000000000	
14.10662900000000	-2.62734700000000	690.39252199999999	32.53193100000000	0.22782600000000	0.00000000000000	0.09948500000000	0.00000000000000	0.00000000000000	0.00000000000000	0.00000000000000	0.00000000000000	0.00000000000000	0.00000000000000	14.74730800000000	0.00000000000000	0.00000000000000	0.00000000000000	0.00000000000000	
14.10828500000000	-3.20489400000000	691.33313799999996	32.61338800000000	0.22687300000000	0.00000000000000	0.09949600000000	0.00000000000000	0.00000000000000	0.00000000000000	0.00000000000000	0.00000000000000	0.00000000000000	0.00000000000000	14.88763700000000	0.00000000000000	0.00000000000000	0.00000000000000	0.00000000000000	
14.10995200000000	-3.79470100000000	692.32762100000002	32.69976800000000	0.22589300000000	0.00000000000000	0.09950800000000	0.00000000000000	0.00000000000000	0.00000000000000	0.00000000000000	0.00000000000000	0.00000000000000	0.00000000000000	15.03140300000000	0.00000000000000	0.00000000000000	0.00000000000000	0.00000000000000	
14.11162000000000	-4.39663800000000	693.37639200000001	32.79106300000000	0.22488800000000	0.00000000000000	0.09952300000000	0.00000000000000	0.00000000000000	0.00000000000000	0.00000000000000	0.00000000000000	0.00000000000000	0.00000000000000	15.17854900000000	0.00000000000000	0.00000000000000	0.00000000000000	0.00000000000000	
14.11327800000000	-5.01053900000000	694.47985900000003	32.88725800000000	0.22385700000000	0.00000000000000	0.09953900000000	0.00000000000000	0.00000000000000	0.00000000000000	0.00000000000000	0.00000000000000	0.00000000000000	0.00000000000000	15.32901300000000	0.00000000000000	0.00000000000000	0.00000000000000	0.00000000000000	
14.11494700000000	-5.63619600000000	695.63840700000003	32.98833200000000	0.22280200000000	0.00000000000000	0.09955700000000	0.00000000000000	0.00000000000000	0.00000000000000	0.00000000000000	0.00000000000000	0.00000000000000	0.00000000000000	15.48272600000000	0.00000000000000	0.00000000000000	0.00000000000000	0.00000000000000	
14.11662700000000	-6.27336400000000	696.85239799999999	33.09425800000000	0.22172600000000	0.00000000000000	0.09957600000000	0.00000000000000	0.00000000000000	0.00000000000000	0.00000000000000	0.00000000000000	0.00000000000000	0.00000000000000	15.63961300000000	0.00000000000000	0.00000000000000	0.00000000000000	0.00000000000000	
14.11828000000000	-6.92176200000000	698.12216300000000	33.20500400000000	0.22062900000000	0.00000000000000	0.09959700000000	0.00000000000000	0.00000000000000	0.00000000000000	0.00000000000000	0.00000000000000	0.00000000000000	0.00000000000000	15.79959300000000	0.00000000000000	0.00000000000000	0.00000000000000	0.00000000000000	
14.11994400000000	-7.58107400000000	699.44800199999997	33.32053600000000	0.21951300000000	0.00000000000000	0.09961900000000	0.00000000000000	0.00000000000000	0.00000000000000	0.00000000000000	0.00000000000000	0.00000000000000	0.00000000000000	15.96258000000000	0.00000000000000	0.00000000000000	0.00000000000000	0.00000000000000	
14.12162100000000	-8.25095100000000	700.83017700000005	33.44081000000000	0.21838100000000	0.00000000000000	0.09964200000000	0.00000000000000	0.00000000000000	0.00000000000000	0.00000000000000	0.00000000000000	0.00000000000000	0.00000000000000	16.12848000000000	0.00000000000000	0.00000000000000	0.00000000000000	0.00000000000000	
14.12328500000000	-8.93101500000000	702.26890400000002	33.56578400000000	0.21723400000000	0.00000000000000	0.09966600000000	0.00000000000000	0.00000000000000	0.00000000000000	0.00000000000000	0.00000000000000	0.00000000000000	0.00000000000000	16.29719200000000	0.00000000000000	0.00000000000000	0.00000000000000	0.00000000000000	
14.12494900000000	-9.62085700000000	703.76435400000003	33.69540900000000	0.21607300000000	0.00000000000000	0.09969100000000	0.00000000000000	0.00000000000000	0.00000000000000	0.00000000000000	0.00000000000000	0.00000000000000	0.00000000000000	16.46861000000000	0.00000000000000	0.00000000000000	0.00000000000000	0.00000000000000	
14.12661100000000	-10.32004200000000	705.31664599999999	33.82963500000000	0.21490300000000	0.00000000000000	0.09971600000000	0.00000000000000	0.00000000000000	0.00000000000000	0.00000000000000	0.00000000000000	0.00000000000000	0.00000000000000	16.64262200000000	0.00000000000000	0.00000000000000	0.00000000000000	0.00000000000000	
14.12827800000000	-11.02810800000000	706.92583999999999	33.96841000000000	0.21372300000000	0.00000000000000	0.09974200000000	0.00000000000000	0.00000000000000	0.00000000000000	0.00000000000000	0.00000000000000	0.00000000000000	0.00000000000000	16.81910700000000	0.00000000000000	0.00000000000000	0.00000000000000	0.00000000000000	
